<svg width="727" height="530" viewBox="0 0 727 530" fill="none" xmlns="http://www.w3.org/2000/svg">
<path d="M8.55837 528.9C8.55467 528.824 8.45477 528.249 8.31664 527.453C4.34152 504.619 -1.94861 458.8 0.583476 408.478C2.25098 375.336 7.54702 346.162 16.3224 321.764C27.1463 291.677 43.3662 268.666 64.5331 253.374C90.8924 234.328 125.355 226.953 166.961 231.451C286.55 244.379 365.889 301.392 423.82 343.022C448.786 360.962 470.347 376.455 489.693 384.611C510.522 393.391 527.446 392.84 542.955 382.881C575.235 362.154 587.61 284.736 556.035 223.93L556.645 223.758C588.309 284.733 575.819 362.417 543.387 383.244C534.711 388.815 525.903 391.288 516.775 391.289C490.051 391.292 460.557 370.093 423.364 343.367C393.571 321.957 359.801 297.691 317.913 276.702C269.201 252.295 219.793 237.649 166.866 231.927C125.468 227.453 91.1958 234.784 64.9907 253.717C43.9101 268.949 27.7482 291.885 16.9551 321.888C8.19206 346.25 2.90342 375.39 1.23715 408.496C-1.2937 458.784 4.99274 504.573 8.96538 527.392C9.15779 528.495 9.21329 528.817 9.21329 528.897H8.88521L8.55837 528.9Z" fill="white" fill-opacity="0.5"/>
<path d="M514.569 298.205C507.078 298.201 499.594 297.854 492.161 297.165C453.101 293.565 416.351 280.864 388.679 261.401C373.105 250.441 360.579 237.353 351.8 222.87C343.336 208.779 339.084 194.019 339.505 180.187C340.129 159.711 350.632 142.349 369.876 129.979C384.973 120.276 405.281 115.909 427.061 117.68C454.575 119.917 480.763 131.648 498.91 149.863L498.382 150.148C480.342 132.041 454.321 120.382 426.99 118.158C405.4 116.404 385.265 120.728 370.308 130.342C351.205 142.621 340.779 159.861 340.16 180.198C339.741 193.96 343.973 208.648 352.4 222.675C361.143 237.101 373.619 250.136 389.132 261.053C416.702 280.444 453.321 293.099 492.242 296.686C534.714 300.604 575.245 293.378 609.456 275.797C639.431 260.599 661.464 238.329 671.912 212.668C681.555 189.016 681.815 162.581 672.663 136.22L673.297 136.1C682.479 162.547 682.216 189.071 672.539 212.806C662.048 238.572 639.927 260.932 609.83 276.193C581.939 290.611 548.654 298.302 514.569 298.205Z" fill="white" fill-opacity="0.5"/>
<path d="M214.923 529.836C211.283 529.836 208.124 528.545 204.564 526.829C198.965 523.984 174.595 512.144 166.207 508.194C158.234 504.441 72.982 461.913 70.6016 460.725C70.2107 460.609 69.8554 460.436 69.5565 460.217C69.2577 459.998 69.0213 459.737 68.8613 459.45C67.4775 457.081 70.033 452.382 72.2876 448.237C72.961 446.997 73.5987 445.826 74.0686 444.822C76.3762 439.9 80.9581 425.927 81.0038 425.786C81.0245 425.725 81.066 425.668 81.1246 425.621L96.0655 413.661C96.1402 413.601 96.2388 413.561 96.3467 413.547C96.4546 413.532 96.5662 413.543 96.6649 413.578C96.6858 413.585 96.7056 413.594 96.7241 413.604L112.773 421.38C114.861 405.751 116.084 397.673 116.409 397.378C116.859 396.967 130.724 385.915 131.367 385.402C131.405 385.372 131.45 385.346 131.5 385.326C131.577 385.295 131.663 385.279 131.751 385.279C131.839 385.28 131.925 385.297 132.001 385.33L145.449 391.075L144.973 374.666C144.97 374.569 145.018 374.476 145.106 374.404L159.566 362.829C159.629 362.779 159.709 362.742 159.798 362.723C159.888 362.704 159.982 362.704 160.072 362.721C160.161 362.739 160.243 362.774 160.307 362.823C160.371 362.872 160.416 362.933 160.437 363L161.778 367.337C165.18 355.83 182.642 342.639 192.413 342.639C192.489 342.639 192.565 342.64 192.64 342.641C194.086 342.667 195.51 342.902 196.833 343.332L196.835 343.329L222.516 350.869L213.802 327.386C213.779 327.325 213.778 327.261 213.799 327.199C213.819 327.137 213.861 327.08 213.919 327.033L218.792 323.132L210.986 321.582C210.901 321.566 210.823 321.535 210.76 321.49C210.696 321.446 210.649 321.39 210.624 321.329L204.31 306.131C204.284 306.068 204.28 306.002 204.3 305.938C204.319 305.874 204.361 305.816 204.421 305.767L219.926 293.357C219.971 293.32 220.027 293.29 220.088 293.27L220.094 293.268L220.101 293.266L220.107 293.263L220.113 293.262L220.119 293.261L220.125 293.259L220.131 293.257L220.138 293.255L220.144 293.254L220.15 293.253L220.157 293.251L220.164 293.25L220.17 293.248C220.262 293.231 220.359 293.232 220.45 293.253L251.939 300.378L259.18 295.522C259.282 295.455 259.416 295.42 259.553 295.425C259.58 295.426 259.606 295.429 259.632 295.434L290.714 300.5L286.378 279.428C286.364 279.363 286.374 279.297 286.406 279.235C286.438 279.174 286.492 279.12 286.561 279.079L306.2 267.51C306.23 267.492 306.264 267.477 306.299 267.465H306.3L306.317 267.458L306.324 267.456L306.33 267.455L306.342 267.451L306.347 267.45L306.353 267.448L306.359 267.446L306.367 267.445L306.372 267.444L306.378 267.443L306.384 267.441H306.388L306.398 267.439L306.404 267.437C306.405 267.437 306.405 267.438 306.41 267.436L306.417 267.436C306.422 267.434 306.423 267.435 306.423 267.435L306.43 267.434L306.437 267.433L306.444 267.432L306.452 267.431H306.458C306.48 267.431 306.502 267.43 306.525 267.428C317.759 267.431 321.594 267.455 322.962 267.521C323.026 267.199 323.095 266.877 323.169 266.557C324.92 259.012 329.615 252.092 336.051 247.572C341.872 243.296 349.194 240.296 357.2 238.906C358.4 238.721 359.614 238.584 360.834 238.495L400.518 235.289C395.072 229.636 390.305 224.907 387.232 222.3C387.148 222.229 387.104 222.137 387.108 222.043C387.112 221.949 387.164 221.86 387.253 221.792C391.307 218.743 405.804 211.09 406.419 210.766C406.444 210.753 406.471 210.741 406.499 210.731L416.462 207.132L416.634 207.388C418.004 204.613 420.324 202.145 423.369 200.223C426.384 198.385 429.263 196.851 429.292 196.836L429.313 196.825C456.161 184.038 456.627 184.196 456.962 184.31C457.042 184.339 457.111 184.382 457.162 184.436C457.214 184.489 457.246 184.551 457.257 184.616L456.753 184.657L456.465 184.962C456.516 184.988 456.573 185.006 456.634 185.015C456.694 185.024 456.756 185.023 456.817 185.013C455.694 185.261 440.539 192.374 430.328 197.234L446.374 212.718L454.165 208.659C448.059 200.609 447.493 192.819 458.519 183.529L458.504 183.521C458.504 183.521 470.692 173.347 482.884 163.173C488.98 158.086 495.078 152.999 499.654 149.184C504.338 145.279 506.197 143.729 506.985 143.111L497.235 136.499C497.187 136.474 497.149 136.44 497.125 136.4C497.082 136.344 497.06 136.281 497.06 136.216C497.06 136.152 497.082 136.088 497.125 136.032C497.267 135.347 497.962 133.524 499.979 128.224C501.564 124.061 503.793 118.268 506.602 111.005C511.441 98.495 516.311 86.0045 516.311 86.0045C516.328 85.9624 516.354 85.9228 516.389 85.8874L528.402 73.7609L528.422 73.7419L528.423 73.7409V73.74C528.492 73.6792 528.586 73.6361 528.69 73.6169C528.795 73.5976 528.905 73.6033 529.005 73.6329C529.064 73.6499 529.118 73.6752 529.163 73.7074L546.594 85.557L546.859 64.1269C546.861 64.0438 546.899 63.9635 546.969 63.8981L561.447 50.3693C561.481 50.3238 561.533 50.2871 561.595 50.264C561.678 50.2285 561.773 50.2105 561.868 50.2119C561.964 50.2134 562.057 50.2342 562.138 50.2722C562.163 50.2836 562.186 50.2967 562.207 50.3112L580.177 62.169L588.168 54.9204C588.231 54.8633 588.315 54.8211 588.41 54.7992C588.506 54.7772 588.608 54.7764 588.703 54.7969C588.77 54.811 588.832 54.8347 588.886 54.8668L590.107 55.5929L589.369 51.3096C589.354 51.2184 589.384 51.126 589.454 51.05L603.93 35.5661C603.972 35.5212 604.026 35.4837 604.09 35.4562L604.093 35.4544C604.095 35.4544 604.098 35.4599 604.097 35.4526C604.137 35.4364 604.18 35.4239 604.224 35.4154L604.228 35.4145L604.233 35.4136L604.238 35.4127L604.241 35.4118C604.283 35.4057 604.327 35.4029 604.37 35.4036L604.377 35.4045H604.39L604.397 35.4054L604.414 35.4063L604.42 35.4073L604.426 35.4082H604.432L604.458 35.4118L604.471 35.4145L604.476 35.4154L604.482 35.4163L604.488 35.4181C604.513 35.423 604.537 35.4294 604.561 35.4372L640.027 47.1044L623.99 13.8528C623.96 13.7919 623.952 13.7265 623.968 13.6628C623.983 13.5992 624.02 13.5395 624.076 13.4897L639.008 0.136913C639.063 0.0867283 639.135 0.0480571 639.217 0.0247856C639.298 0.00151416 639.387 -0.00553689 639.473 0.0043396C639.56 0.0133775 639.642 0.0386723 639.711 0.0777843C639.78 0.116896 639.835 0.168503 639.869 0.227626L641.04 2.24357L697.273 66.4696C697.701 67.0605 707.254 80.3524 709.378 86.471C711.42 92.3528 725.303 141.341 726.351 145.046C728.918 153.66 723.234 158.813 720.351 160.791C715.859 163.873 704.35 170.513 704.234 170.581C704.14 170.635 704.023 170.663 703.903 170.66C703.784 170.657 703.67 170.622 703.581 170.563L688.378 160.476C688.282 160.413 688.223 160.326 688.212 160.231C687.325 152.806 685.963 141.738 685.675 140.214L662.396 133.079L663.58 160.862C663.583 160.913 663.572 160.964 663.547 161.012C663.522 161.06 663.485 161.104 663.436 161.141C662.758 161.65 646.72 173.645 637.248 175.657C631.698 176.836 625.304 177.061 616.147 171.291C607.161 193.248 606.987 193.389 606.883 193.473C606.677 193.636 593.369 201.001 585.455 205.376C585.353 205.432 585.227 205.459 585.1 205.45C584.974 205.441 584.856 205.397 584.771 205.328L583.237 204.079C581.715 205.585 575.966 211.178 572.192 213.497C568.919 215.508 547.119 227.674 537.098 233.255C535.73 234.075 534.303 234.869 532.817 235.638C532.367 235.889 532.109 236.033 532.08 236.048L532.058 236.026C529.216 237.459 526.255 238.759 523.192 239.919C527.381 244.405 530.814 248.085 535.04 252.617C535.098 252.679 535.129 252.752 535.129 252.828C535.129 252.903 535.099 252.977 535.041 253.039L519.782 269.613C519.743 269.655 519.693 269.692 519.635 269.719C519.576 269.746 519.51 269.764 519.442 269.772L500.041 272.049C500.755 274.826 504.292 291.742 489.175 305.919C480.682 313.885 471.226 319.147 463.233 320.356C460.282 320.804 442.371 319.556 422.428 317.943L431.37 357.83C431.381 357.881 431.378 357.934 431.361 357.984C431.343 358.035 431.311 358.082 431.268 358.123L414.176 374.068C414.113 374.125 414.03 374.168 413.935 374.191C413.841 374.214 413.739 374.216 413.643 374.197L365.557 364.584L382.678 402.015C382.707 402.078 382.713 402.145 382.695 402.21C382.677 402.275 382.636 402.335 382.576 402.385L363.726 417.984C363.657 418.042 363.565 418.082 363.463 418.1C363.361 418.118 363.254 418.111 363.157 418.082L343.972 412.414L349.521 429.931C349.54 429.99 349.539 430.052 349.518 430.111C349.497 430.17 349.456 430.225 349.4 430.269L330.362 445.509C330.288 445.567 330.192 445.607 330.086 445.623C329.981 445.638 329.871 445.629 329.773 445.595L304.441 436.937C304.519 437.588 304.61 438.717 304.773 440.699C304.988 443.328 305.266 446.83 305.543 450.332C306.095 457.333 306.638 464.332 306.638 464.332C306.642 464.382 306.632 464.433 306.609 464.48C306.586 464.527 306.551 464.57 306.505 464.607L287.467 479.846C287.389 479.908 287.286 479.949 287.174 479.962C287.061 479.976 286.946 479.961 286.846 479.921L273.009 474.31L270.869 490.767C270.885 490.804 270.887 490.843 270.875 490.881L270.794 491.337C270.777 491.434 270.708 491.522 270.603 491.582C270.498 491.643 270.365 491.671 270.233 491.66C270.193 491.656 270.155 491.649 270.117 491.64L254.001 505.817C253.923 505.886 253.814 505.932 253.693 505.946C253.573 505.961 253.45 505.943 253.346 505.897L250.68 504.71C250.399 508.542 239.585 517.73 228.655 524.776C222.93 528.466 218.672 529.836 214.923 529.836ZM72.5946 460.815C84.1055 466.556 159.301 504.054 166.754 507.563C175.148 511.516 199.537 523.365 205.131 526.208C212.163 529.596 217.213 531.154 227.984 524.212C240.656 516.044 250.637 506.811 249.623 504.241L110.068 442.172C109.987 442.136 109.921 442.084 109.878 442.023C109.835 441.961 109.816 441.891 109.823 441.822L110.198 438.293C100.002 448.714 80.1625 459.933 72.5946 460.815ZM111.25 441.823L253.499 505.09L269.629 490.901C262.914 487.761 176.013 451.502 129.423 432.112L111.25 441.823ZM129.908 431.454C133.254 432.846 166.918 446.861 200.162 460.753C220.632 469.308 236.94 476.144 248.631 481.07C263.013 487.13 268.124 489.304 269.922 490.181L272.038 473.917L146.633 423.065C146.555 423.033 146.489 422.987 146.443 422.931C146.397 422.875 146.371 422.81 146.369 422.745L145.475 391.952L132.221 386.29L129.908 431.454ZM147.812 422.688L286.988 479.123L305.3 464.465L165.95 412.633L147.812 422.688ZM166.396 411.96L305.571 463.726C304.863 454.594 303.604 438.544 303.4 436.581L195.06 399.549C194.985 399.524 194.919 399.485 194.869 399.437C194.819 399.388 194.786 399.331 194.772 399.271C194.7 398.951 187.515 367.231 186.933 365.399C186.738 364.752 186.322 364.152 185.724 363.656C185.126 363.161 184.366 362.786 183.515 362.567C180.983 362.091 177.619 363.499 173.792 366.641C168.276 371.122 165.186 376.937 165.105 382.983L166.396 411.96ZM81.9619 426.057C81.5537 427.298 77.2542 440.325 75.0317 445.066C74.5532 446.087 73.9106 447.266 73.2322 448.515C71.1589 452.327 68.5787 457.07 69.7961 459.154C69.9072 459.357 70.0742 459.541 70.2867 459.695C70.4992 459.848 70.7525 459.968 71.0307 460.045C75.5152 461.356 99.6384 448.538 110.429 436.739C110.492 436.671 110.584 436.619 110.691 436.593C110.797 436.567 110.913 436.568 111.019 436.595C111.125 436.622 111.216 436.675 111.277 436.744C111.339 436.813 111.368 436.895 111.359 436.978L110.924 441.072L128.889 431.471L131.184 386.652C126.799 390.148 118.059 397.125 117.251 397.805C116.829 399.037 114.513 415.885 113.04 427.056C112.008 430.813 107.259 437.102 97.2445 442.592C92.0557 445.437 90.5375 445.436 89.7395 445.058C88.6171 444.527 89.0463 443.057 89.5002 441.502C89.7048 440.87 89.8572 440.23 89.9566 439.585L95.6473 415.102L81.9619 426.057ZM304.127 436.004L329.864 444.801L348.165 430.151C300.422 415.066 222.287 390.361 216.088 388.299L196.265 399.135L304.092 435.992V435.991C304.105 435.996 304.117 435.999 304.127 436.004ZM96.8103 414.542L90.9654 439.679C90.8638 440.345 90.7068 441.007 90.4955 441.659C90.186 442.722 89.7604 444.178 90.2896 444.428C90.5979 444.574 91.8325 444.627 96.6364 441.992C106.421 436.628 111.046 430.534 112.035 426.946C112.251 425.304 112.459 423.73 112.66 422.223L96.8103 414.542ZM216.461 387.613C222.018 389.471 336.748 425.729 348.302 429.38L342.818 412.073L233.442 379.757C233.369 379.736 233.304 379.702 233.252 379.659C233.2 379.616 233.162 379.564 233.141 379.509L222.851 351.774L200.548 345.226C203.193 347.329 205.09 349.88 206.07 352.653L216.461 387.613ZM145.994 374.801L147.366 421.999L165.38 412.011L164.089 383.017C164.167 376.776 167.35 370.772 173.034 366.14C177.191 362.728 180.802 361.281 183.767 361.842C184.801 362.09 185.728 362.534 186.457 363.128C187.187 363.722 187.692 364.446 187.923 365.228C188.476 366.965 194.608 393.995 195.639 398.544L215.45 387.716L205.077 352.818C205.05 352.73 202.064 343.592 192.61 343.39C192.544 343.389 192.475 343.388 192.407 343.388C182.682 343.388 164.155 357.96 162.357 369.308C162.343 369.396 162.288 369.477 162.2 369.538C162.113 369.598 161.999 369.634 161.879 369.639C161.759 369.643 161.641 369.617 161.545 369.564C161.45 369.511 161.382 369.434 161.356 369.348L159.66 363.861L145.994 374.801ZM234.74 379.333L363.203 417.29L381.312 402.303L255.196 369.73L234.74 379.333ZM255.539 369.025L381.382 401.528L364.375 364.347L294.444 350.365C294.354 350.347 294.273 350.312 294.209 350.262L254.288 319.529L231.978 314.332L255.539 369.025ZM214.858 327.388L233.941 378.821L254.527 369.156L230.976 314.487L214.858 327.388ZM295.791 349.859L413.585 373.41L429.966 358.127L316.684 339.584L295.791 349.859ZM317.051 338.876L430.244 357.405L421.377 317.859C394.511 315.677 364.375 312.876 362.192 312.673C360.296 312.59 358.414 312.385 356.565 312.064C345.668 310.165 336.369 304.107 329.677 294.547C323.816 286.497 321.426 277.325 322.826 268.251C320.771 268.202 312.803 268.18 307.083 268.177L317.051 338.876ZM241.356 308.489L294.65 349.518L316.045 338.997L306.109 268.524L287.427 279.529L297.419 328.077C297.435 328.158 297.415 328.24 297.363 328.311C297.31 328.383 297.227 328.44 297.126 328.474C297.026 328.508 296.913 328.516 296.805 328.499C296.697 328.481 296.6 328.438 296.528 328.376L259.476 296.337L241.356 308.489ZM260.891 296.406L296.144 326.889L290.878 301.294L260.891 296.406ZM212.063 321.021L219.569 322.51L230.818 313.506C230.824 313.501 230.829 313.497 230.836 313.493C230.902 313.444 230.984 313.41 231.075 313.394C231.165 313.377 231.26 313.38 231.349 313.4L252.825 318.403L245.646 312.875C238.348 311.267 229.794 309.357 227.717 308.789L212.063 321.021ZM205.368 306.117L211.341 320.493L226.993 308.263L220.107 294.318L205.368 306.117ZM368.751 312.521C390.059 314.468 457.267 320.498 463.028 319.622C470.789 318.449 480.028 313.286 488.376 305.457C503.29 291.469 499.708 274.754 499.037 272.167L440.947 278.984C440.85 278.995 440.75 278.986 440.661 278.957C440.571 278.927 440.495 278.879 440.441 278.819C440.322 278.684 436.751 274.658 431.454 268.773L412.918 268.464C414.091 271.798 419.558 291.041 395.356 304.027C386.252 308.913 377.239 311.774 368.751 312.521ZM323.905 267.956C322.391 277.003 324.724 286.173 330.582 294.204C337.134 303.564 346.2 309.488 356.801 311.336C368.26 313.332 381.386 310.597 394.756 303.422C418.352 290.762 413.119 272.047 411.954 268.709C409.556 270.036 400.329 275.109 391.169 279.733C392.055 282.286 391.543 284.993 389.744 287.271C386.951 291.272 381.445 294.845 376.355 295.961C362.905 298.91 353.713 289.324 353.621 289.227C353.545 289.146 353.516 289.046 353.54 288.948C353.563 288.851 353.638 288.765 353.747 288.708L406.333 261.413C405.144 259.744 398.341 250.923 382.581 243.426C376.132 240.299 368.458 238.832 360.756 239.254L360.475 239.277V239.274C353.344 239.795 345.204 242.18 336.754 248.114C330.474 252.525 325.887 259.294 324.171 266.683C324.076 267.094 323.99 267.507 323.912 267.92C323.912 267.932 323.911 267.944 323.907 267.956H323.905ZM227.983 308.076C229.292 308.448 237.698 310.336 244.22 311.778L240.261 308.729C240.214 308.693 240.177 308.651 240.152 308.604C240.128 308.558 240.117 308.508 240.119 308.458C240.121 308.408 240.137 308.359 240.166 308.313C240.195 308.268 240.235 308.227 240.286 308.194L251.066 300.964L221.127 294.189L227.983 308.076ZM354.761 289.098C356.409 290.661 364.646 297.747 376.065 295.244C380.832 294.198 386.204 290.701 388.84 286.929C390.104 285.118 391.346 282.395 390.087 279.703C390.051 279.625 390.05 279.541 390.085 279.463C390.12 279.386 390.189 279.319 390.281 279.273C400.955 273.895 411.829 267.84 411.937 267.78C412.031 267.729 412.145 267.702 412.261 267.704L430.769 268.013C429.249 266.325 427.598 264.499 425.858 262.58L407.136 261.913L354.761 289.098ZM388.311 222.074C400.595 232.671 437.415 274.042 441.014 278.093L461.482 268.092L446.171 251.45C434.13 238.523 429.313 232.536 430.181 225.3C430.946 218.939 442.722 214.142 445.489 213.1L429.488 197.659C428.597 198.141 426.349 199.379 424.019 200.8C414.135 206.829 415.276 218.923 415.289 219.045C415.298 219.126 415.27 219.207 415.211 219.275C415.151 219.344 415.063 219.396 414.96 219.424C414.856 219.453 414.743 219.456 414.637 219.432C414.531 219.409 414.439 219.362 414.373 219.296L406.605 211.59C404.247 212.842 392.307 219.216 388.311 222.074ZM462.409 268.539L443.1 277.973L519.063 269.058L533.411 253.475L462.409 268.539ZM446.48 213.573C446.1 213.709 431.985 218.791 431.195 225.366C430.356 232.359 435.117 238.256 447.013 251.028L462.406 267.761L533.802 252.612C529.733 248.248 526.367 244.642 522.276 240.261C520.901 240.767 519.496 241.25 518.061 241.709C492.992 249.731 476.709 234.539 476.548 234.385C476.506 234.346 476.476 234.301 476.459 234.253C476.442 234.204 476.437 234.154 476.447 234.105C476.456 234.056 476.479 234.008 476.513 233.965C476.548 233.922 476.593 233.885 476.648 233.855L498.016 222.207C499.692 221.179 501.273 220.209 502.758 219.299C501.659 218.153 500.604 217.079 499.549 216.03C491.751 218.172 468.578 223.524 459.396 214.486C457.691 212.828 456.114 211.101 454.673 209.313L446.561 213.539C446.535 213.552 446.508 213.564 446.48 213.573ZM407.307 261.169L425.155 261.804C417.766 253.663 408.86 243.976 401.19 235.988L368.578 238.622C373.784 239.221 378.75 240.646 383.133 242.797C399.401 250.536 406.274 259.695 407.307 261.169ZM477.685 234.222C480.083 236.28 495.259 248.188 517.656 241.023C522.732 239.405 527.575 237.418 532.114 235.091C532.949 234.626 534.544 233.739 536.632 232.575C548.831 225.231 556.13 215.968 555.593 207.387C555.441 205.027 554.591 202.72 553.102 200.628C551.613 198.535 549.521 196.707 546.973 195.271C543.684 193.423 539.899 192.11 535.87 191.419C531.84 190.727 527.657 190.673 523.597 191.259C514.356 192.544 505.293 194.446 496.52 196.94C495.238 197.279 493.909 197.63 492.506 197.997C486.874 199.467 479.471 200.791 476.204 198.738C474.792 197.853 474.312 196.461 474.778 194.601C475.423 192.025 479.774 187.284 488.705 185.528C495.215 184.246 500.526 185.442 504.495 189.081C510.48 185.944 521.993 179.259 524.364 177.879C522.433 176.386 513.235 169.669 504.212 169.669C504.136 169.669 504.059 169.67 503.983 169.671C493.641 169.803 474.139 171.794 459.729 183.653C445.995 194.954 449.989 203.973 460.211 214.037C470.617 224.284 501.403 214.694 501.712 214.595C502.601 214.314 503.801 213.887 505.189 213.394C509.935 211.594 514.888 210.106 519.989 208.947C520.006 208.939 520.025 208.933 520.044 208.928L520.047 208.936C525.543 207.85 530.539 207.857 532.555 210.802C534.106 213.071 533.158 216.085 529.881 219.287C524.976 224.081 515.213 228.586 508.489 227.652C500.612 226.559 498.551 224.257 498.012 223.141L477.685 234.222ZM529.195 190.118C535.85 190.09 542.328 191.696 547.603 194.683C550.267 196.185 552.453 198.097 554.009 200.285C555.564 202.473 556.452 204.885 556.609 207.352C557.048 214.363 552.422 221.806 544.242 228.332C554.981 222.338 568.98 214.496 571.54 212.922C575.287 210.62 581.261 204.78 582.542 203.512L534.959 164.779L525.564 178.092C525.531 178.14 525.485 178.181 525.428 178.214C525.288 178.296 511.214 186.512 504.687 189.899C504.579 189.955 504.446 189.978 504.316 189.963C504.186 189.949 504.069 189.897 503.989 189.82C500.264 186.225 495.212 185.024 488.969 186.251C480.941 187.83 476.423 192.164 475.778 194.736C475.384 196.314 475.749 197.469 476.864 198.168C479.124 199.588 484.559 199.277 492.166 197.291C493.567 196.925 494.895 196.574 496.174 196.235C504.997 193.727 514.111 191.816 523.404 190.523C525.313 190.253 527.252 190.118 529.195 190.118ZM498.879 222.653C499.095 223.308 500.448 225.773 508.678 226.917C515.027 227.797 524.347 223.451 529.068 218.836C532.098 215.874 533.014 213.14 531.646 211.139C529.919 208.617 525.438 208.63 520.398 209.626C519.591 209.989 507.189 217.553 498.879 222.653ZM500.537 215.754C501.525 216.738 502.514 217.748 503.544 218.819C510.391 214.628 515.117 211.765 517.72 210.229C513.59 211.331 509.554 212.613 505.632 214.068C504.232 214.566 503.023 214.996 502.115 215.283C501.964 215.332 501.411 215.504 500.537 215.754ZM407.489 211.209L414.214 217.881C414.161 214.53 414.872 211.196 416.318 208.018L407.489 211.209ZM522.753 153.725L585.215 204.572C591.841 200.909 603.431 194.492 605.761 193.176L542.905 142.837L522.753 153.725ZM543.504 142.21L606.305 192.504C607.569 189.61 612.999 176.385 615.306 170.75C614.736 170.374 614.155 169.976 613.563 169.554C608.515 165.951 590.919 152.964 576.916 142.605L567.039 147.72C566.942 147.77 566.824 147.793 566.706 147.786C566.588 147.779 566.476 147.742 566.391 147.682L552.989 138.052C552.935 138.014 552.894 137.967 552.868 137.915C552.842 137.863 552.831 137.808 552.837 137.753V137.75L554.318 125.871C550.834 123.289 548.255 121.376 547.059 120.488L543.504 142.21ZM507.712 143.604C504.5 146.265 479.052 167.502 466.38 178.078C479.768 170.48 495.146 169.035 503.965 168.922C513.411 168.797 522.743 175.533 524.994 177.276L534.231 164.186L521.62 153.92L521.617 153.917L521.615 153.916L521.611 153.913L521.607 153.909L521.606 153.908L521.599 153.901L521.598 153.9L521.594 153.897L521.585 153.889L521.578 153.881L521.575 153.877H521.574L521.567 153.869V153.868L521.561 153.86L521.557 153.857L521.551 153.848L521.55 153.848L521.548 153.844L521.547 153.843L521.545 153.839V153.838L521.542 153.836L521.541 153.834L521.54 153.831L521.538 153.83L521.536 153.827L521.535 153.825L521.534 153.822L521.532 153.821L521.531 153.818L521.53 153.816L521.529 153.813L521.527 153.811L521.526 153.809L521.525 153.808L521.524 153.804L521.521 153.802L521.52 153.799L521.519 153.796L521.518 153.794L521.516 153.79L521.515 153.789L521.514 153.786L521.511 153.78L521.51 153.777V153.775L521.509 153.772L521.508 153.771L521.506 153.767L521.505 153.762C521.484 153.703 521.483 153.639 521.503 153.579L525.029 143.016C519.901 145.551 514.949 147.997 514.797 148.058C514.703 148.097 514.596 148.112 514.49 148.103C514.383 148.094 514.284 148.06 514.205 148.007L507.712 143.604ZM577.334 141.853C591.382 152.245 609.192 165.392 614.271 169.017C624.466 176.292 631.205 176.162 636.966 174.937C645.382 173.149 659.752 162.792 662.314 160.909L649.068 153.028C648.117 153.593 645.175 155.34 642.11 157.185C640.993 157.86 639.58 158.211 638.136 158.174C636.691 158.137 635.315 157.713 634.265 156.983L597.751 131.595L598.1 131.324L597.804 131.019L610.905 124.096L598.458 115.915L585.287 122.524C585.213 122.561 585.126 122.584 585.036 122.588C584.946 122.593 584.856 122.58 584.776 122.551C584.695 122.521 584.626 122.477 584.576 122.422C584.526 122.366 584.498 122.302 584.493 122.236L584.447 121.666L583.986 122.025L568.121 110.994L547.505 119.756C548.533 120.518 551.199 122.496 554.915 125.251L555.414 125.285L555.376 125.592C557.921 127.479 560.928 129.707 564.216 132.142L563.856 132.407L564.146 132.714L554.141 137.833L566.8 146.927L576.682 141.811L576.974 142.118L577.334 141.853ZM689.44 160.174L703.943 169.796C705.879 168.675 715.629 163.007 719.656 160.243C722.835 158.062 729.579 151.826 723.562 141.043C718.284 131.58 684.611 78.6179 681.351 73.494L659.148 84.3879L661.331 87.5312L686.405 120.296C686.457 120.365 686.479 120.443 686.468 120.521C686.456 120.599 686.412 120.672 686.341 120.73C686.27 120.788 686.176 120.829 686.073 120.846C685.969 120.863 685.86 120.855 685.763 120.825L625.416 101.953L601.698 113.659L694.175 142.011C694.447 142.111 699.97 144.228 700.823 147.737C701.273 149.583 700.338 151.45 698.047 153.285L689.44 160.174ZM649.568 152.363L662.529 160.074L661.365 132.762L648.368 128.778L649.568 152.363ZM686.748 140.544C686.956 141.667 687.271 144.204 687.996 150.061C688.469 153.87 688.927 157.676 689.125 159.321L697.298 152.777C699.362 151.125 700.211 149.475 699.823 147.871C699.061 144.729 693.802 142.71 693.749 142.69L686.748 140.544ZM598.9 131.363L634.967 156.44C635.831 157.054 636.973 157.411 638.173 157.441C639.374 157.472 640.547 157.174 641.466 156.605C644.678 154.672 647.753 152.846 648.551 152.374L647.333 128.461L611.094 117.351L612.222 124.082C612.226 124.104 612.227 124.126 612.225 124.148C612.221 124.204 612.2 124.259 612.164 124.308C612.127 124.357 612.076 124.4 612.014 124.433L598.9 131.363ZM526.284 142.395L522.826 152.757L542.493 142.13L546.171 119.651L546.524 91.1946L536.056 137.421C536.046 137.467 536.023 137.512 535.99 137.552V137.553L535.987 137.555L535.986 137.557L535.984 137.559L535.98 137.564C535.942 137.605 535.894 137.641 535.838 137.669C534.364 138.399 530.389 140.366 526.284 142.395ZM498.391 136.264L514.603 147.258C516.658 146.256 528.104 140.595 534.743 137.309L518.876 126.252L498.391 136.264ZM682.024 72.7879C682.556 73.6211 716.119 126.362 723.694 139.344C719.708 125.31 710.063 91.4705 708.392 86.6562C706.297 80.6247 696.495 66.9851 696.397 66.8481L643.428 6.3526L682.024 72.7879ZM555.255 126.565L553.951 137.018L563.067 132.354C560.198 130.229 557.554 128.269 555.255 126.565ZM519.473 125.635L535.21 136.603L546.545 86.5437L529.183 74.7403L519.473 125.635ZM517.265 86.275C511.229 101.757 500.247 130.052 498.353 135.383L518.459 125.555L528.027 75.4092L517.265 86.275ZM598.982 115.255L611.046 123.185L610.012 117.02L600.433 114.082L600.417 114.078C600.338 114.051 600.269 114.01 600.218 113.959C600.167 113.907 600.134 113.847 600.123 113.784L590.291 56.6658L589.219 56.0286L598.982 115.255ZM580.756 62.8334L585.456 121.533L597.957 115.26L588.203 56.0785L580.756 62.8334ZM568.686 110.356L584.418 121.294L579.739 62.8861L562.376 51.4285C562.75 57.1069 566.566 91.564 568.686 110.356ZM625.798 101.259L684.785 119.705L660.439 87.8934L660.429 87.8798L658.039 84.436C658.027 84.4204 658.017 84.404 658.01 84.387L640.497 48.0792L605.08 36.4283L625.798 101.259ZM547.602 86.4202L547.197 119.023L567.662 110.325C567.439 108.352 565.873 94.4295 564.367 80.6556C563.417 71.9664 562.677 65.0354 562.169 60.056C561.682 55.288 561.444 52.8817 561.373 51.6482L547.876 64.2612L547.602 86.3984V86.4202ZM590.403 51.3568L601.03 113.088L624.785 101.363L604.118 36.687L590.403 51.3568ZM625.046 13.8019L658.75 83.6836L680.927 72.8024L639.262 1.0881L625.046 13.8019ZM348.067 278.377C348.033 278.377 347.999 278.374 347.965 278.368C347.892 278.358 347.823 278.335 347.763 278.303C347.704 278.27 347.654 278.228 347.619 278.18C347.53 278.06 338.883 266.034 351.035 258.412C354.761 256.076 358.689 255.079 362.711 255.447C370.358 256.149 375.579 261.481 375.797 261.708C375.872 261.786 375.904 261.882 375.886 261.977C375.868 262.072 375.801 262.158 375.7 262.217L348.384 278.294C348.294 278.347 348.182 278.377 348.067 278.377ZM361.095 256.122C357.594 256.206 354.254 257.222 351.695 258.982C341.39 265.445 346.894 275.31 348.242 277.418L374.676 261.861C373.492 260.758 368.807 256.76 362.579 256.19C362.087 256.145 361.591 256.122 361.095 256.122Z" fill="white" fill-opacity="0.5"/>
<path d="M107.95 233.57C108.443 234.222 108.662 234.967 108.58 235.711C108.498 236.455 108.118 237.164 107.488 237.749C106.858 238.334 106.006 238.769 105.041 238.997C104.075 239.226 103.039 239.239 102.064 239.035C101.088 238.83 100.217 238.417 99.5607 237.849C98.9041 237.28 98.4913 236.58 98.3748 235.839C98.2582 235.097 98.4431 234.347 98.9059 233.683C99.3688 233.019 100.089 232.471 100.975 232.108C102.163 231.621 103.566 231.502 104.874 231.776C106.182 232.05 107.288 232.695 107.95 233.57Z" fill="white" fill-opacity="0.5"/>
<path d="M623.768 41.1892C623.681 41.0458 614.738 26.6946 591.842 8.02284L592.328 7.69971C615.299 26.4332 624.277 40.847 624.365 40.9904L623.768 41.1892Z" fill="white" fill-opacity="0.5"/>
</svg>
