<svg width="244" height="189" viewBox="0 0 244 189" fill="none" xmlns="http://www.w3.org/2000/svg">
<path d="M100.65 37.43C98.01 40.97 95.61 44.87 93.45 49.13C91.29 53.39 89.43 57.77 87.87 62.27C86.37 66.71 85.2 71.12 84.36 75.5C83.58 79.82 83.19 83.87 83.19 87.65C83.19 92.33 83.88 95.72 85.26 97.82C86.64 99.92 89.01 100.97 92.37 100.97C96.27 100.97 99.69 99.62 102.63 96.92C105.57 94.16 108.33 90.38 110.91 85.58C112.59 82.46 114.03 79.04 115.23 75.32C116.43 71.6 117.39 67.79 118.11 63.89C118.89 59.93 119.46 55.97 119.82 52.01C120.18 47.99 120.36 44.15 120.36 40.49C120.36 38.15 120.33 36.44 120.27 35.36C120.21 34.28 120.12 33.41 120 32.75C120.18 32.75 120.63 32.81 121.35 32.93C122.07 33.05 122.88 33.2 123.78 33.38C124.74 33.56 125.67 33.8 126.57 34.1C127.53 34.4 128.34 34.73 129 35.09C128.7 39.65 128.13 44.36 127.29 49.22C126.51 54.08 125.46 58.88 124.14 63.62C122.82 68.36 121.29 72.92 119.55 77.3C117.81 81.68 115.86 85.61 113.7 89.09C110.52 94.25 106.95 98.27 102.99 101.15C99.03 104.09 94.35 105.56 88.95 105.56C83.43 105.56 79.14 103.94 76.08 100.7C73.02 97.52 71.49 92.66 71.49 86.12C71.49 82.34 71.91 78.08 72.75 73.34C73.59 68.54 74.7 63.68 76.08 58.76C77.52 53.78 79.17 48.95 81.03 44.27C82.89 39.53 84.84 35.3 86.88 31.58C87.9 31.64 89.1 31.85 90.48 32.21C91.86 32.57 93.21 33.05 94.53 33.65C95.85 34.19 97.05 34.82 98.13 35.54C99.27 36.2 100.11 36.83 100.65 37.43ZM125.357 96.2C125.657 94.46 126.167 92.18 126.887 89.36C127.667 86.48 128.567 83.45 129.587 80.27C130.607 77.03 131.687 73.79 132.827 70.55C133.967 67.31 135.077 64.4 136.157 61.82C136.937 59.96 137.627 58.52 138.227 57.5C138.827 56.42 139.487 55.52 140.207 54.8C141.047 54.92 141.917 55.13 142.817 55.43C143.717 55.73 144.587 56.09 145.427 56.51C146.267 56.93 147.017 57.38 147.677 57.86C148.337 58.28 148.847 58.7 149.207 59.12C147.587 61.04 146.147 63.23 144.887 65.69C143.687 68.15 142.457 71.3 141.197 75.14C144.437 72.26 147.287 69.5 149.747 66.86C152.267 64.22 154.607 61.28 156.767 58.04C157.127 57.74 157.757 57.59 158.657 57.59C159.497 57.59 160.307 57.74 161.087 58.04C161.867 58.28 162.407 58.64 162.707 59.12C161.627 62 161.087 64.85 161.087 67.67C161.087 70.31 161.477 72.29 162.257 73.61C162.197 73.97 161.777 74.66 160.997 75.68C160.277 76.7 159.467 77.66 158.567 78.56C156.947 77.72 155.507 76.58 154.247 75.14C152.987 73.64 152.057 72.02 151.457 70.28C148.637 72.26 146.237 74.21 144.257 76.13C142.277 77.99 140.567 80.09 139.127 82.43C137.747 84.71 136.547 87.35 135.527 90.35C134.567 93.35 133.637 96.92 132.737 101.06C132.197 101 131.537 100.79 130.757 100.43C130.037 100.13 129.287 99.74 128.507 99.26C127.787 98.78 127.127 98.27 126.527 97.73C125.927 97.19 125.537 96.68 125.357 96.2ZM194.866 61.64C195.466 61.64 196.156 61.76 196.936 62C197.776 62.18 198.526 62.45 199.186 62.81C199.846 63.11 200.386 63.44 200.806 63.8C201.286 64.16 201.526 64.49 201.526 64.79C200.326 67.31 199.216 69.86 198.196 72.44C197.176 74.96 196.306 77.39 195.586 79.73C194.866 82.07 194.296 84.26 193.876 86.3C193.516 88.34 193.336 90.11 193.336 91.61C193.336 93.29 193.516 94.7 193.876 95.84C194.236 96.92 194.836 97.7 195.676 98.18C194.956 98.66 194.026 99.05 192.886 99.35C191.746 99.65 190.726 99.8 189.826 99.8C186.586 99.8 184.966 97.58 184.966 93.14C184.966 89.72 186.106 85.04 188.386 79.1C187.186 81.86 185.806 84.47 184.246 86.93C182.686 89.33 181.096 91.46 179.476 93.32C177.856 95.18 176.206 96.71 174.526 97.91C172.906 99.05 171.406 99.74 170.026 99.98C167.806 99.86 166.006 98.81 164.626 96.83C163.246 94.79 162.556 92.21 162.556 89.09C162.556 85.73 163.276 82.19 164.716 78.47C166.156 74.75 167.986 71.3 170.206 68.12C172.486 64.94 174.946 62.3 177.586 60.2C180.226 58.04 182.776 56.9 185.236 56.78C185.836 56.96 186.496 57.32 187.216 57.86C187.996 58.4 188.716 59.03 189.376 59.75C190.096 60.47 190.696 61.22 191.176 62C191.656 62.72 191.926 63.35 191.986 63.89C189.586 64.25 187.096 65.42 184.516 67.4C181.996 69.38 179.686 71.78 177.586 74.6C175.546 77.36 173.866 80.33 172.546 83.51C171.226 86.69 170.566 89.66 170.566 92.42C170.566 93.56 170.986 94.28 171.826 94.58C173.566 94.22 175.576 92.75 177.856 90.17C180.136 87.53 182.896 83.48 186.136 78.02C186.736 76.94 187.396 75.74 188.116 74.42C188.896 73.1 189.676 71.72 190.456 70.28C191.236 68.84 191.986 67.4 192.706 65.96C193.486 64.46 194.206 63.02 194.866 61.64ZM206.001 92.24C206.001 89.6 206.631 85.91 207.891 81.17C209.151 76.37 210.921 70.79 213.201 64.43C216.921 54.29 220.401 45.86 223.641 39.14C226.941 32.36 230.151 27.08 233.271 23.3C233.991 23.42 234.861 23.72 235.881 24.2C236.961 24.68 238.011 25.22 239.031 25.82C240.051 26.36 240.951 26.93 241.731 27.53C242.571 28.13 243.111 28.61 243.351 28.97C238.671 34.49 234.561 40.43 231.021 46.79C227.481 53.15 224.241 60.44 221.301 68.66C218.781 75.74 216.861 82.13 215.541 87.83C214.221 93.47 213.561 98.18 213.561 101.96C213.561 102.98 213.561 103.61 213.561 103.85C213.561 104.09 213.591 104.33 213.651 104.57C212.811 104.45 212.091 104.24 211.491 103.94C210.891 103.64 210.501 103.28 210.321 102.86C210.201 102.56 209.871 102.11 209.331 101.51C208.791 100.97 208.311 100.55 207.891 100.25C207.351 99.89 206.901 98.96 206.541 97.46C206.181 95.9 206.001 94.16 206.001 92.24Z" fill="white"/>
<path d="M58.95 127.38C60.51 127.38 61.74 127.92 62.64 129C63.54 130.08 63.99 131.58 63.99 133.5C63.99 133.98 63.96 134.49 63.9 135.03C63.84 135.51 63.75 135.93 63.63 136.29C62.37 135.99 60.99 135.81 59.49 135.75C59.13 138.39 58.17 141.18 56.61 144.12C55.05 147 53.16 149.73 50.94 152.31C48.72 154.83 46.29 157.05 43.65 158.97C41.01 160.89 38.4 162.18 35.82 162.84C27.78 162.66 21.9 160.56 18.18 156.54C14.52 152.58 12.69 146.37 12.69 137.91C12.69 131.73 13.83 125.76 16.11 120C18.39 114.18 21.42 109.02 25.2 104.52C28.98 100.02 33.3 96.42 38.16 93.72C43.08 90.96 48.18 89.58 53.46 89.58C57.6 89.58 60.81 90.45 63.09 92.19C65.43 93.93 66.6 96.39 66.6 99.57C66.6 101.67 66.09 103.62 65.07 105.42C64.11 107.22 62.49 109.17 60.21 111.27C58.83 110.85 57.63 110.13 56.61 109.11C55.59 108.03 54.96 106.8 54.72 105.42C56.76 103.92 58.2 102.54 59.04 101.28C59.88 100.02 60.3 98.52 60.3 96.78C60.3 94.02 58.65 92.64 55.35 92.64C52.65 92.64 49.74 93.66 46.62 95.7C43.56 97.68 40.47 100.56 37.35 104.34C32.91 109.68 29.67 115.2 27.63 120.9C25.59 126.54 24.57 132.9 24.57 139.98C24.57 142.62 24.84 145.02 25.38 147.18C25.92 149.34 26.64 151.23 27.54 152.85C28.44 154.47 29.49 155.76 30.69 156.72C31.95 157.68 33.3 158.22 34.74 158.34C36.66 157.92 38.58 156.96 40.5 155.46C42.42 153.9 44.16 152.1 45.72 150.06C47.34 147.96 48.69 145.74 49.77 143.4C50.91 141 51.6 138.72 51.84 136.56C50.16 136.92 48.54 137.28 46.98 137.64C45.48 137.94 44.04 138.09 42.66 138.09C40.86 138.09 39.27 137.64 37.89 136.74C36.57 135.84 35.67 134.61 35.19 133.05C36.27 132.45 37.83 131.82 39.87 131.16C41.97 130.5 44.19 129.9 46.53 129.36C48.87 128.76 51.15 128.28 53.37 127.92C55.65 127.56 57.51 127.38 58.95 127.38ZM91.7452 154.02C90.6052 153.06 89.8252 151.86 89.4052 150.42C89.0452 148.98 88.8652 147.75 88.8652 146.73C88.8652 145.47 89.0152 144.39 89.3152 143.49C89.0752 143.49 88.5352 143.97 87.6952 144.93C86.8552 145.89 85.9252 147.03 84.9052 148.35C83.9452 149.67 82.9852 150.96 82.0252 152.22C81.0652 153.48 80.3452 154.41 79.8652 155.01C79.0852 155.85 78.3352 156.51 77.6152 156.99C76.9552 157.47 76.4152 157.74 75.9952 157.8C75.0352 157.74 74.0152 157.53 72.9352 157.17C71.9152 156.87 70.9252 156.42 69.9652 155.82C69.0652 155.22 68.2552 154.5 67.5352 153.66C66.8752 152.82 66.4252 151.86 66.1852 150.78C66.1852 149.1 66.2152 147.72 66.2752 146.64C66.3952 145.56 66.6052 144.39 66.9052 143.13C67.4452 140.85 68.2252 138.27 69.2452 135.39C70.3252 132.51 71.5552 129.69 72.9352 126.93C74.3152 124.11 75.8452 121.5 77.5252 119.1C79.2652 116.64 81.0952 114.72 83.0152 113.34C83.5552 113.34 84.1852 113.4 84.9052 113.52C85.6252 113.58 86.3452 113.73 87.0652 113.97C87.8452 114.21 88.5652 114.51 89.2252 114.87C89.9452 115.17 90.5452 115.59 91.0252 116.13C90.4852 116.73 89.1052 118.74 86.8852 122.16C84.7252 125.58 82.2952 130.5 79.5952 136.92C79.2952 137.58 78.9352 138.54 78.5152 139.8C78.0952 141.06 77.6752 142.38 77.2552 143.76C76.8352 145.14 76.4752 146.49 76.1752 147.81C75.9352 149.13 75.8152 150.18 75.8152 150.96C75.8152 151.44 75.8752 151.8 75.9952 152.04C76.1752 152.28 76.3252 152.46 76.4452 152.58C77.3452 152.22 78.4852 151.23 79.8652 149.61C81.2452 147.99 83.1652 145.5 85.6252 142.14C86.2252 141.3 86.9152 140.34 87.6952 139.26C88.5352 138.18 89.3752 137.04 90.2152 135.84C91.0552 134.58 91.8352 133.29 92.5552 131.97C93.3352 130.65 93.9652 129.33 94.4452 128.01C94.6852 127.29 94.9852 126.45 95.3452 125.49C95.7652 124.47 96.2452 123.42 96.7852 122.34C97.3852 121.26 98.0452 120.18 98.7652 119.1C99.5452 117.96 100.445 116.91 101.465 115.95C102.245 115.95 103.085 116.04 103.985 116.22C104.885 116.4 105.725 116.64 106.505 116.94C107.345 117.18 108.065 117.48 108.665 117.84C109.265 118.14 109.715 118.47 110.015 118.83C108.935 121.47 107.735 124.08 106.415 126.66C105.095 129.24 103.865 131.79 102.725 134.31C101.585 136.77 100.625 139.23 99.8452 141.69C99.0652 144.15 98.6752 146.55 98.6752 148.89C98.6752 150.15 98.7652 151.26 98.9452 152.22C99.1852 153.12 99.4252 153.9 99.6652 154.56C99.9052 155.16 100.115 155.67 100.295 156.09C100.535 156.51 100.655 156.87 100.655 157.17C100.655 157.23 100.595 157.32 100.475 157.44C100.415 157.5 100.355 157.53 100.295 157.53C99.8752 157.53 99.3352 157.44 98.6752 157.26C98.0152 157.08 97.2652 156.81 96.4252 156.45C95.6452 156.15 94.8352 155.79 93.9952 155.37C93.2152 154.95 92.4652 154.5 91.7452 154.02ZM109.578 154.2C109.878 152.46 110.388 150.18 111.108 147.36C111.888 144.48 112.788 141.45 113.808 138.27C114.828 135.03 115.908 131.79 117.048 128.55C118.188 125.31 119.298 122.4 120.378 119.82C121.158 117.96 121.848 116.52 122.448 115.5C123.048 114.42 123.708 113.52 124.428 112.8C125.268 112.92 126.138 113.13 127.038 113.43C127.938 113.73 128.808 114.09 129.648 114.51C130.488 114.93 131.238 115.38 131.898 115.86C132.558 116.28 133.068 116.7 133.428 117.12C131.808 119.04 130.368 121.23 129.108 123.69C127.908 126.15 126.678 129.3 125.418 133.14C128.658 130.26 131.508 127.5 133.968 124.86C136.488 122.22 138.828 119.28 140.988 116.04C141.348 115.74 141.978 115.59 142.878 115.59C143.718 115.59 144.528 115.74 145.308 116.04C146.088 116.28 146.628 116.64 146.928 117.12C145.848 120 145.308 122.85 145.308 125.67C145.308 128.31 145.698 130.29 146.478 131.61C146.418 131.97 145.998 132.66 145.218 133.68C144.498 134.7 143.688 135.66 142.788 136.56C141.168 135.72 139.728 134.58 138.468 133.14C137.208 131.64 136.278 130.02 135.678 128.28C132.858 130.26 130.458 132.21 128.478 134.13C126.498 135.99 124.788 138.09 123.348 140.43C121.968 142.71 120.768 145.35 119.748 148.35C118.788 151.35 117.858 154.92 116.958 159.06C116.418 159 115.758 158.79 114.978 158.43C114.258 158.13 113.508 157.74 112.728 157.26C112.008 156.78 111.348 156.27 110.748 155.73C110.148 155.19 109.758 154.68 109.578 154.2ZM172.517 154.02C171.377 153.06 170.597 151.86 170.177 150.42C169.817 148.98 169.637 147.75 169.637 146.73C169.637 145.47 169.787 144.39 170.087 143.49C169.847 143.49 169.307 143.97 168.467 144.93C167.627 145.89 166.697 147.03 165.677 148.35C164.717 149.67 163.757 150.96 162.797 152.22C161.837 153.48 161.117 154.41 160.637 155.01C159.857 155.85 159.107 156.51 158.387 156.99C157.727 157.47 157.187 157.74 156.767 157.8C155.807 157.74 154.787 157.53 153.707 157.17C152.687 156.87 151.697 156.42 150.737 155.82C149.837 155.22 149.027 154.5 148.307 153.66C147.647 152.82 147.197 151.86 146.957 150.78C146.957 149.1 146.987 147.72 147.047 146.64C147.167 145.56 147.377 144.39 147.677 143.13C148.217 140.85 148.997 138.27 150.017 135.39C151.097 132.51 152.327 129.69 153.707 126.93C155.087 124.11 156.617 121.5 158.297 119.1C160.037 116.64 161.867 114.72 163.787 113.34C164.327 113.34 164.957 113.4 165.677 113.52C166.397 113.58 167.117 113.73 167.837 113.97C168.617 114.21 169.337 114.51 169.997 114.87C170.717 115.17 171.317 115.59 171.797 116.13C171.257 116.73 169.877 118.74 167.657 122.16C165.497 125.58 163.067 130.5 160.367 136.92C160.067 137.58 159.707 138.54 159.287 139.8C158.867 141.06 158.447 142.38 158.027 143.76C157.607 145.14 157.247 146.49 156.947 147.81C156.707 149.13 156.587 150.18 156.587 150.96C156.587 151.44 156.647 151.8 156.767 152.04C156.947 152.28 157.097 152.46 157.217 152.58C158.117 152.22 159.257 151.23 160.637 149.61C162.017 147.99 163.937 145.5 166.397 142.14C166.997 141.3 167.687 140.34 168.467 139.26C169.307 138.18 170.147 137.04 170.987 135.84C171.827 134.58 172.607 133.29 173.327 131.97C174.107 130.65 174.737 129.33 175.217 128.01C175.457 127.29 175.757 126.45 176.117 125.49C176.537 124.47 177.017 123.42 177.557 122.34C178.157 121.26 178.817 120.18 179.537 119.1C180.317 117.96 181.217 116.91 182.237 115.95C183.017 115.95 183.857 116.04 184.757 116.22C185.657 116.4 186.497 116.64 187.277 116.94C188.117 117.18 188.837 117.48 189.437 117.84C190.037 118.14 190.487 118.47 190.787 118.83C189.707 121.47 188.507 124.08 187.187 126.66C185.867 129.24 184.637 131.79 183.497 134.31C182.357 136.77 181.397 139.23 180.617 141.69C179.837 144.15 179.447 146.55 179.447 148.89C179.447 150.15 179.537 151.26 179.717 152.22C179.957 153.12 180.197 153.9 180.437 154.56C180.677 155.16 180.887 155.67 181.067 156.09C181.307 156.51 181.427 156.87 181.427 157.17C181.427 157.23 181.367 157.32 181.247 157.44C181.187 157.5 181.127 157.53 181.067 157.53C180.647 157.53 180.107 157.44 179.447 157.26C178.787 157.08 178.037 156.81 177.197 156.45C176.417 156.15 175.607 155.79 174.767 155.37C173.987 154.95 173.237 154.5 172.517 154.02Z" fill="white"/>
</svg>
